<?xml version="1.0" encoding="UTF-8"?>
<svg width="71px" height="71px" viewBox="0 0 71 71" version="1.1" xmlns="http://www.w3.org/2000/svg" xmlns:xlink="http://www.w3.org/1999/xlink">
    <!-- Generator: Sketch 46.2 (44496) - http://www.bohemiancoding.com/sketch -->
    <title>Icons/ btn-chat</title>
    <desc>Created with Sketch.</desc>
    <g id="Symbols" stroke="none" stroke-width="1" fill="none" fill-rule="evenodd">
        <g id="Icons/-btn-chat">
            <g id="btn-chat">
                <g id="Group-2">
                    <g id="Page-1" transform="translate(19.000000, 20.000000)">
                        <path d="M28.69612,28.6960732 L24.6906423,27.3618559 C19.3409195,31.4075471 11.7015324,31.0058473 6.82523639,26.1294982 C1.49416368,20.7983676 1.49416368,12.1560826 6.82523639,6.82495191 C12.1563091,1.49382126 20.7985002,1.49382126 26.1295729,6.82495191 C31.0044343,11.701301 31.4075644,19.3422057 27.3604826,24.690552 L28.69612,28.6960732 Z" id="Path" mask="url(#mask-3)"></path>
                        <path d="M23.6749266,14.3496506 C22.4856211,14.3496506 21.5229866,15.3137302 21.5229866,16.501614 C21.5229866,17.6909324 22.4856211,18.6535774 23.6749266,18.6535774 C24.8627975,18.6535774 25.8268666,17.6909324 25.8268666,16.501614 C25.8268666,15.3137302 24.8627975,14.3496506 23.6749266,14.3496506 L23.6749266,14.3496506 Z M9.32865993,14.3496506 C8.13935442,14.3496506 7.17671992,15.3137302 7.17671992,16.501614 C7.17671992,17.6909324 8.13935442,18.6535774 9.32865993,18.6535774 C10.5165308,18.6535774 11.4805999,17.6909324 11.4805999,16.501614 C11.4805999,15.3137302 10.5165308,14.3496506 9.32865993,14.3496506 L9.32865993,14.3496506 Z M16.5017933,14.3496506 C15.3139224,14.3496506 14.3498533,15.3137302 14.3498533,16.501614 C14.3498533,17.6909324 15.3139224,18.6535774 16.5017933,18.6535774 C17.6896642,18.6535774 18.6537333,17.6909324 18.6537333,16.501614 C18.6537333,15.3137302 17.6896642,14.3496506 16.5017933,14.3496506 L16.5017933,14.3496506 Z M28.69612,28.6960732 L24.6906423,27.3618559 C19.3409195,31.4075471 11.7015324,31.0058473 6.82523639,26.1294982 C1.49416368,20.7983676 1.49416368,12.1560826 6.82523639,6.82495191 C12.1563091,1.49382126 20.7985002,1.49382126 26.1295729,6.82495191 C31.0044343,11.701301 31.4075644,19.3422057 27.3604826,24.690552 L28.69612,28.6960732 Z M30.0135203,24.0593855 C33.3193783,18.1578324 32.4770786,10.5581845 27.4569721,5.53937115 C21.404543,-0.513123716 11.5907401,-0.513123716 5.53831105,5.53937115 C-0.512770351,11.591866 -0.512770351,21.4044278 5.53831105,27.4569227 C10.5584176,32.4770838 18.1579828,33.3193927 24.0581241,30.0148464 L32,32 L30.0135203,24.0593855 Z" id="Fill-1" fill="#FFFFFF"></path>
                    </g>
                </g>
            </g>
        </g>
    </g>
</svg>