<?xml version="1.0" encoding="UTF-8"?>
<svg width="50px" height="50px" viewBox="0 0 50 50" version="1.1" xmlns="http://www.w3.org/2000/svg" xmlns:xlink="http://www.w3.org/1999/xlink">
    <!-- Generator: Sketch 46.2 (44496) - http://www.bohemiancoding.com/sketch -->
    <title>NewIcons/ download-red</title>
    <desc>Created with Sketch.</desc>
    <defs></defs>
    <g id="Symbols" stroke="none" stroke-width="1" fill="none" fill-rule="evenodd">
        <g id="NewIcons/-download-red" fill="#EF3030">
            <g id="Page-1" transform="translate(4.000000, 5.000000)">
                <path d="M38.7222222,19 C37.3555556,19 36.4444444,19.9333333 36.4444444,21.3333333 L36.4444444,35.3333333 L4.55555556,35.3333333 L4.55555556,21.3333333 C4.55555556,19.9333333 3.64444444,19 2.27777778,19 C0.911111111,19 0,19.9333333 0,21.3333333 L0,37.6666667 C0,39.0666667 0.911111111,40 2.27777778,40 L38.7222222,40 C40.0888889,40 41,39.0666667 41,37.6666667 L41,21.3333333 C41,19.9333333 40.0888889,19 38.7222222,19" id="Fill-1"></path>
                <path d="M20,0 C18.7368421,0 17.8947368,0.925925926 17.8947368,2.31481481 L17.8947368,17.1296296 L15.5789474,14.5833333 C14.7368421,13.6574074 13.4736842,13.6574074 12.6315789,14.5833333 C11.7894737,15.5092593 11.7894737,16.8981481 12.6315789,17.8240741 L18.5263158,24.3055556 C18.9473684,24.7685185 19.5789474,25 20,25 C20.6315789,25 21.0526316,24.7685185 21.4736842,24.3055556 L27.3684211,17.8240741 C28.2105263,16.8981481 28.2105263,15.5092593 27.3684211,14.5833333 C26.5263158,13.6574074 25.2631579,13.6574074 24.4210526,14.5833333 L22.1052632,17.3611111 L22.1052632,2.31481481 C22.1052632,1.15740741 21.0526316,0 20,0" id="Fill-3"></path>
            </g>
        </g>
        <rect id="Rectangle-4-Copy-9" stroke="#979797" stroke-width="15" x="-407.5" y="-748.5" width="784" height="1653"></rect>
    </g>
</svg>