<?xml version="1.0" encoding="UTF-8"?>
<svg width="50px" height="50px" viewBox="0 0 50 50" version="1.1" xmlns="http://www.w3.org/2000/svg" xmlns:xlink="http://www.w3.org/1999/xlink">
    <!-- Generator: Sketch 46.2 (44496) - http://www.bohemiancoding.com/sketch -->
    <title>NewIcons/ tel-blue</title>
    <desc>Created with Sketch.</desc>
    <defs></defs>
    <g id="Symbols" stroke="none" stroke-width="1" fill="none" fill-rule="evenodd">
        <g id="NewIcons/-tel-blue" fill="#023B4C">
            <g id="Group-9" transform="translate(23.497293, 26.172584) rotate(-40.000000) translate(-23.497293, -26.172584) translate(15.997293, 7.172584)">
                <path d="M8.98178152,0.551792702 C7.09538103,0.750467078 0.208447254,3.65372329 0.00408720105,18.6311609 C-0.203416852,34.3960452 7.09538103,37.7140523 9.00221752,37.6850487 L9.00221752,27.2684207 C7.43336112,27.2611698 7.11581703,25.6790257 6.74796894,22.4175755 C6.51845688,20.2524599 6.44928886,17.5768816 6.74796894,14.9216058 C6.972765,13.0537766 7.34847309,11.2323531 9.00221752,11.230903 L8.98178152,0.551792702 Z" id="Fill-1"></path>
                <path d="M13.517769,11.1533426 C13.517769,11.159103 9.93125011,11.1533426 9.93125011,11.1533426 L9.93125011,0.54839284 L13.517769,0.54839284 C14.2994462,0.551273054 14.9361064,1.05531059 14.9343379,1.70191875 C14.9361064,1.70047864 14.9343379,9.99981671 14.9343379,9.99981671 C14.9361064,10.6104222 14.3471957,11.1547827 13.517769,11.1533426 Z M13.517769,37.7047701 C13.517769,37.7004498 9.93125011,37.7047701 9.93125011,37.7047701 L9.93125011,27.3215969 L13.517769,27.3215969 C14.2994462,27.3244771 14.9361064,27.8299547 14.9343379,28.4765629 C14.9361064,28.4736827 14.9343379,36.5325228 14.9343379,36.5325228 C14.9361064,37.151769 14.3471957,37.6961295 13.517769,37.7047701 Z" id="Fill-7"></path>
            </g>
        </g>
        <rect id="Rectangle-4-Copy-9" stroke="#979797" stroke-width="15" x="-598.5" y="-850.5" width="784" height="1653"></rect>
    </g>
</svg>