<?xml version="1.0" encoding="utf-8"?>
<!-- Generator: Adobe Illustrator 21.0.0, SVG Export Plug-In . SVG Version: 6.00 Build 0)  -->
<svg version="1.1" id="Layer_1" xmlns="http://www.w3.org/2000/svg" xmlns:xlink="http://www.w3.org/1999/xlink" x="0px" y="0px"
	 viewBox="0 0 71 71" width="71px" height="71px" style="enable-background:new 0 0 71 71;" xml:space="preserve">
<style type="text/css">
	.st0{fill:none;}
	.st1{fill:#FFFFFF;}
</style>
<title>Icons/ btn-chat</title>
<desc>Created with Sketch.</desc>
<g id="Symbols">
	<g id="Icons_x2F_-btn-chat">
		<g id="btn-chat">
			<g id="Group-2">
				<g id="Page-1" transform="translate(19.000000, 20.000000)">
					<g>
						<path id="Path" class="st0" d="M43.8,42.8l-9-3c-12,9.1-29.1,8.2-40.1-2.8c-12-12-12-31.3,0-43.3s31.3-12,43.3,0
							C49,4.7,49.9,21.9,40.8,33.9L43.8,42.8z"/>
					</g>
					<path id="Fill-1" class="st1" d="M32.6,10.7c-2.7,0-4.8,2.2-4.8,4.8c0,2.7,2.2,4.8,4.8,4.8c2.7,0,4.8-2.2,4.8-4.8
						C37.4,12.8,35.2,10.7,32.6,10.7L32.6,10.7z M0.4,10.7c-2.7,0-4.8,2.2-4.8,4.8c0,2.7,2.2,4.8,4.8,4.8c2.7,0,4.8-2.2,4.8-4.8
						C5.2,12.8,3.1,10.7,0.4,10.7L0.4,10.7z M16.5,10.7c-2.7,0-4.8,2.2-4.8,4.8c0,2.7,2.2,4.8,4.8,4.8c2.7,0,4.8-2.2,4.8-4.8
						C21.3,12.8,19.2,10.7,16.5,10.7L16.5,10.7z M43.8,42.8l-9-3c-12,9.1-29.1,8.2-40.1-2.8c-12-12-12-31.3,0-43.3s31.3-12,43.3,0
						C49,4.7,49.9,21.9,40.8,33.9L43.8,42.8z M46.8,32.4c7.4-13.2,5.5-30.3-5.7-41.5C27.5-22.6,5.5-22.6-8.1-9.1
						c-13.6,13.6-13.6,35.6,0,49.1c11.3,11.3,28.3,13.1,41.5,5.7l17.8,4.5L46.8,32.4z"/>
				</g>
			</g>
		</g>
	</g>
</g>
</svg>
