<?xml version="1.0" encoding="utf-8"?>
<!-- Generator: Adobe Illustrator 21.0.0, SVG Export Plug-In . SVG Version: 6.00 Build 0)  -->
<svg version="1.1" id="Layer_1" xmlns="http://www.w3.org/2000/svg" xmlns:xlink="http://www.w3.org/1999/xlink" x="0px" y="0px"
	 viewBox="0 0 50 50" style="enable-background:new 0 0 50 50;" width="50px" height="50px" xml:space="preserve">
<style type="text/css">
	.st0{fill:#023B4C;}
</style>
<g id="Symbols">
	<g id="NewIcons_x2F_-tel-blue">
		
			<g id="Group-9" transform="translate(23.497293, 26.172584) rotate(-40.000000) translate(-23.497293, -26.172584) translate(15.997293, 7.172584)">
			<path id="Fill-1" class="st0" d="M6.9-9.1C4-8.8-6.5-4.4-6.8,18.5C-7.2,42.6,4,47.7,6.9,47.6l0-15.9c-2.4,0-2.9-2.4-3.4-7.4
				C3.1,21,3,16.9,3.5,12.9C3.8,10,4.4,7.2,6.9,7.2L6.9-9.1z"/>
			<path id="Fill-7" class="st0" d="M13.8,7.1c0,0-5.5,0-5.5,0l0-16.2l5.5,0C15-9.1,16-8.3,16-7.3c0,0,0,12.7,0,12.7
				C16,6.3,15.1,7.1,13.8,7.1z M13.8,47.7c0,0-5.5,0-5.5,0l0-15.9l5.5,0c1.2,0,2.2,0.8,2.2,1.8c0,0,0,12.3,0,12.3
				C16,46.8,15.1,47.7,13.8,47.7z"/>
		</g>
	</g>
</g>
</svg>
