<?xml version="1.0" encoding="utf-8"?>
<!-- Generator: Adobe Illustrator 21.0.0, SVG Export Plug-In . SVG Version: 6.00 Build 0)  -->
<svg version="1.1" id="Layer_1" xmlns="http://www.w3.org/2000/svg" xmlns:xlink="http://www.w3.org/1999/xlink" x="0px" y="0px"
	 viewBox="0 0 50 50" width="50px" height="50px" style="enable-background:new 0 0 50 50;" xml:space="preserve">
<style type="text/css">
	.st0{fill:#EF3030;}
</style>
<title>NewIcons/ download-red</title>
<desc>Created with Sketch.</desc>
<g id="Symbols">
	<g id="NewIcons_x2F_-download-red">
		<g id="Page-1" transform="translate(4.000000, 5.000000)">
			<path id="Fill-1" class="st0" d="M42.7,18.8c-1.6,0-2.7,1.1-2.7,2.8v16.6H2.1V21.6c0-1.7-1.1-2.8-2.7-2.8s-2.7,1.1-2.7,2.8V41
				c0,1.7,1.1,2.8,2.7,2.8h43.3c1.6,0,2.7-1.1,2.7-2.8V21.6C45.4,19.9,44.3,18.8,42.7,18.8"/>
			<path id="Fill-3" class="st0" d="M20.4-3.8c-1.5,0-2.5,1.1-2.5,2.8v17.6l-2.8-3c-1-1.1-2.5-1.1-3.5,0s-1,2.8,0,3.9l7,7.7
				c0.5,0.6,1.3,0.8,1.8,0.8c0.8,0,1.3-0.3,1.8-0.8l7-7.7c1-1.1,1-2.8,0-3.9c-1-1.1-2.5-1.1-3.5,0l-2.8,3.3V-1
				C22.9-2.4,21.7-3.8,20.4-3.8"/>
		</g>
	</g>
</g>
</svg>
